<svg xmlns="http://www.w3.org/2000/svg" width="1280" height="960" viewBox="0 0 1280 960">
  <defs>
    <style>
      .cls-1 {
        fill: #6cffd5;
        stroke: #aaffeb;
        stroke-width: 15px;
        fill-rule: evenodd;
      }
    </style>
  </defs>
  <path id="Фигура_1" data-name="Фигура 1" class="cls-1" d="M37,1043c23.232,16.47,52.645-7.11,65-8,61.019-4.39,117.486-10.68,173.422-19.61A267.058,267.058,0,0,1,326,1012c30.86,0.95,68.871,11.31,77,14,31.564,10.43,91.343,17.63,153,18,26.891,0.16,66.693-3.46,104-8,44.325-5.39,84.717-13.28,129-19,44.25-5.72,93.249-10.68,124-11,61.178-.63,110.84,7.49,172,6,40.03-.98,65.81-12.559,105.82-10.96,44.59,1.78,76.93,10.99,102.18-9.04,25.81-20.479,32.06-61.877,26-114-79.25,9.6-157.1,16.826-237,22-79.46,5.145-177.563,7.927-271,9-103.061,1.184-226.987,2.937-281-5-74.832-11-146.981-23.782-229-27-57.278-2.247-129.316-.785-214,34A459.96,459.96,0,0,0-1,959C2.594,1000.42,16.017,1028.12,37,1043Z"/>
</svg>
