<svg width="23" height="23" viewBox="0 0 23 23" fill="none" xmlns="http://www.w3.org/2000/svg">
	<g clip-path="url(#clip0_7305_4272)">
		<path d="M22.8732 4.68105L20.559 2.42364C20.4777 2.3445 20.3676 2.30005 20.2527 2.30005C20.1379 2.30005 20.0277 2.3445 19.9464 2.42364L11.5841 10.5791L9.95451 8.99034C9.87325 8.91113 9.76307 8.86664 9.64819 8.86664C9.53331 8.86664 9.42313 8.91113 9.34188 8.99034L7.0272 11.2477C6.98689 11.2869 6.9549 11.3335 6.93308 11.3848C6.91126 11.436 6.90002 11.491 6.90002 11.5465C6.90002 11.602 6.91126 11.6569 6.93308 11.7082C6.9549 11.7595 6.98689 11.806 7.0272 11.8452L11.2641 15.9762C11.3451 16.0553 11.4552 16.1 11.5704 16.1C11.5755 16.1 11.5803 16.0974 11.5854 16.0974C11.5897 16.0974 11.5943 16.0998 11.5988 16.0998C11.6557 16.0998 11.7121 16.0889 11.7647 16.0677C11.8172 16.0464 11.865 16.0152 11.9052 15.9759L22.8732 5.27878C23.0423 5.11331 23.0423 4.84599 22.8732 4.68105Z" fill="#25315B"/>
		<path d="M16.8607 12.3076V18.0106H4.98943V6.13933H13.3611L16.0507 3.44995H3.69973V3.45184C3.69353 3.45184 3.68787 3.44995 3.6814 3.44995C3.32122 3.45021 2.97542 3.59133 2.71791 3.84315C2.4604 4.09497 2.31159 4.43752 2.30328 4.79761H2.30005V19.3523H2.30355C2.31204 19.7061 2.45638 20.0431 2.70664 20.2934C2.9569 20.5436 3.29388 20.688 3.64771 20.6964V20.6999H18.2024V20.6964C18.5562 20.688 18.8933 20.5437 19.1435 20.2934C19.3938 20.0432 19.5381 19.7061 19.5465 19.3523H19.5501V9.61817L16.8607 12.3076Z" fill="#25315B"/>
	</g>
	<defs>
		<clipPath id="clip0_7305_4272">
			<rect width="23" height="23" fill="white"/>
		</clipPath>
	</defs>
</svg>
