<svg xmlns="http://www.w3.org/2000/svg" width="1280" height="960" viewBox="0 0 1280 960">
  <defs>
    <style>
      .cls-1 {
        fill: #6cffd5;
        stroke: #aaffeb;
        stroke-width: 15px;
        fill-rule: evenodd;
      }
    </style>
  </defs>
  <path id="Фигура_1" data-name="Фигура 1" class="cls-1" d="M1225,54c80.08,79.514,25.34,301.489,49,429,19.49,105.042,74.85,317.865,190,341,166.95,33.541,439.81-331.313,360-526-61.86-150.9-329.47-175.51-328-181,0.77-2.877,77.39,17.545,153,18,26.89,0.162,66.69-3.461,104-8,44.32-5.393,84.72-13.279,129-19,44.25-5.717,93.25-10.683,124-11,61.18-.63,110.84,7.49,172,6,40.03-.975,65.81-12.559,105.82-10.96,44.59,1.782,76.93,10.992,102.18-9.04,25.81-20.479,32.06-61.877,26-114-79.25,9.6-157.1,16.826-237,22-79.46,5.145-177.56,7.927-271,9-96.09,1.1-197.02-.883-281-5C1083.51-31.447,460.679-364.483,408-282,379.893-237.991,485.381-76.051,648-4,860.312,90.069,1113.18-57.03,1225,54Z"/>
</svg>
