<svg width="21" height="20" viewBox="0 0 21 20" fill="none" xmlns="http://www.w3.org/2000/svg">
	<path d="M13.9072 2.81694C14.4431 2.30746 15.1657 2.01599 15.9228 2.00393C16.6799 1.99187 17.4123 2.26016 17.9658 2.75228C18.5193 3.2444 18.8506 3.92191 18.8899 4.64208C18.9292 5.36224 18.6734 6.06882 18.1765 6.61294L18.04 6.75293L7.95372 16.3589C7.73873 16.5634 7.47972 16.721 7.19457 16.8209L7.02132 16.8739L2.76357 17.9799C2.6811 18.0016 2.59432 18.0037 2.51079 17.9861C2.42725 17.9685 2.3495 17.9318 2.28429 17.879C2.21908 17.8263 2.16839 17.7592 2.13663 17.6835C2.10488 17.6079 2.09301 17.526 2.10207 17.4449L2.11887 17.3649L3.28017 13.3109C3.35997 13.0309 3.50277 12.7709 3.69807 12.5509L3.82092 12.4229L13.9072 2.81694ZM13.0042 5.09194L4.56327 13.1299C4.46683 13.2219 4.39015 13.331 4.33752 13.4509L4.29342 13.5739L3.37257 16.7839L6.74517 15.9089C6.83302 15.8861 6.91738 15.8525 6.99612 15.8089L7.10847 15.7369L7.21137 15.6519L15.6513 7.61194L13.0042 5.09194ZM17.2977 3.52394C16.9675 3.20923 16.5257 3.02346 16.059 3.00311C15.5924 2.98276 15.1346 3.12929 14.7756 3.41394L14.6496 3.52394L13.7466 4.38394L16.3926 6.90594L17.2977 6.04594C17.6281 5.73146 17.8232 5.3107 17.8445 4.86627C17.8659 4.42184 17.712 3.98586 17.4132 3.64394L17.2977 3.52394Z" stroke="currentColor"/>
</svg>