<svg width="184" height="213" viewBox="0 0 184 213" fill="none" xmlns="http://www.w3.org/2000/svg">
<path d="M120.379 172.189C139.394 172.189 154.809 156.795 154.809 137.805C154.809 118.816 139.394 103.421 120.379 103.421C101.364 103.421 85.9497 118.816 85.9497 137.805C85.9497 156.795 101.364 172.189 120.379 172.189Z" stroke="#6CFFD5" stroke-width="2" stroke-linecap="round" stroke-linejoin="round" stroke-dasharray="10 10"/>
<path d="M132.881 33.5836H53.5723V143.826H132.881V33.5836Z" fill="#3175D6"/>
<path d="M25.514 21.7406L40.0897 36.3022L74.4444 1.98794C73.1631 0.71474 71.4291 0 69.6216 0C67.814 0 66.08 0.71474 64.7987 1.98794L39.7307 27.0279L23.1187 10.4648C22.3836 12.3744 22.2186 14.4558 22.6437 16.4571C23.0689 18.4583 24.0659 20.2936 25.514 21.7406Z" fill="#6CFFD5"/>
<path d="M38.3772 29.693L63.4453 4.65302C64.6116 3.4895 66.1599 2.78635 67.8045 2.67325C69.4492 2.56015 71.0794 3.0447 72.3944 4.03758L74.4468 1.98794C73.1655 0.71474 71.4315 0 69.6239 0C67.8164 0 66.0824 0.71474 64.8011 1.98794L39.733 27.0279L23.121 10.4648C22.7154 11.5231 22.4838 12.6399 22.4351 13.7721L38.3772 29.693Z" fill="#76E5C0"/>
<g style="mix-blend-mode:multiply" opacity="0.55">
<path d="M120.245 33.5836V128.574H53.5723V143.826H132.881V33.5836H120.245Z" fill="#3175D6"/>
</g>
<path d="M124.125 49.3707H62.3335V135.263H124.125V49.3707Z" fill="#BDE0FC"/>
<path d="M70.4092 63.2847H116.773" stroke="#14407D" stroke-width="3" stroke-miterlimit="10"/>
<path d="M70.4092 75.1652H116.773" stroke="#14407D" stroke-width="3" stroke-miterlimit="10"/>
<path d="M70.4092 87.0457H116.773" stroke="#14407D" stroke-width="3" stroke-miterlimit="10"/>
<path d="M70.4092 98.9261H116.773" stroke="#14407D" stroke-width="3" stroke-miterlimit="10"/>
<path d="M70.4092 110.807H116.773" stroke="#14407D" stroke-width="3" stroke-miterlimit="10"/>
<path d="M70.4092 122.687H116.773" stroke="#14407D" stroke-width="3" stroke-miterlimit="10"/>
<g style="mix-blend-mode:screen" opacity="0.55">
<path d="M85.9496 33.5836H53.5723V108.773H85.9496V33.5836Z" fill="#3175D6"/>
</g>
<g style="mix-blend-mode:multiply" opacity="0.55">
<path d="M112.475 33.5836H78.4473V42.6812H112.475V33.5836Z" fill="#3175D6"/>
</g>
<path d="M107.829 28.232H78.624V39.4703H107.829V28.232Z" fill="#6CFFD5" stroke="#14407D" stroke-width="3" stroke-miterlimit="10"/>
<path opacity="0.7" d="M91.9621 212.272C142.751 212.272 183.924 208.344 183.924 203.498C183.924 198.652 142.751 194.724 91.9621 194.724C41.1729 194.724 0 198.652 0 203.498C0 208.344 41.1729 212.272 91.9621 212.272Z" fill="#25315B"/>
<g style="mix-blend-mode:multiply" opacity="0.7">
<path d="M91.5 206.731C121.616 206.731 146.03 204.87 146.03 202.574C146.03 200.279 121.616 198.418 91.5 198.418C61.3838 198.418 36.9697 200.279 36.9697 202.574C36.9697 204.87 61.3838 206.731 91.5 206.731Z" fill="#D3D6E2"/>
</g>
</svg>
