<svg width="20" height="21" viewBox="0 0 20 21" fill="none" xmlns="http://www.w3.org/2000/svg">
	<path d="M18.4182 8.09792L13.0222 7.36795L10.61 2.816C10.5441 2.69137 10.4357 2.59048 10.3018 2.52916C9.96604 2.37485 9.55799 2.50344 9.39009 2.816L6.97791 7.36795L1.58186 8.09792C1.4331 8.11771 1.29708 8.18299 1.19294 8.2819C1.06704 8.40235 0.997669 8.56439 1.00006 8.73243C1.00245 8.90047 1.07641 9.06074 1.20569 9.17805L5.10981 12.7211L4.18744 17.7241C4.16581 17.8405 4.17965 17.9601 4.22738 18.0696C4.27511 18.179 4.35483 18.2738 4.4575 18.3432C4.56016 18.4126 4.68166 18.4539 4.80823 18.4623C4.9348 18.4707 5.06136 18.4459 5.17356 18.3907L10 16.0287L14.8265 18.3907C14.9583 18.456 15.1113 18.4778 15.258 18.454C15.6277 18.3947 15.8764 18.0683 15.8126 17.7241L14.8903 12.7211L18.7944 9.17805C18.9007 9.08111 18.9708 8.9545 18.992 8.81603C19.0494 8.46983 18.7901 8.14936 18.4182 8.09792Z" fill="#25315B"/>
</svg>