<svg xmlns="http://www.w3.org/2000/svg" width="1280" height="960" viewBox="0 0 1280 960">
  <defs>
    <style>
      .cls-1 {
        fill: #6cffd5;
        stroke: #aaffeb;
        stroke-width: 15px;
        fill-rule: evenodd;
      }
    </style>
  </defs>
  <path id="Фигура_1" data-name="Фигура 1" class="cls-1" d="M-5,131c25.8,3.368,55.826-46.883,82.17-63.088C86.086,62.427,107.211,54.34,128,49c70.042-17.991,130.586-3.966,180,5,32.766,5.945,62.116,7.75,95,13,55.626,8.881,97.058,17.664,153,18,26.891,0.162,66.693-3.461,104-8,44.325-5.393,84.717-13.279,129-19,44.25-5.717,93.249-10.683,124-11,61.178-.63,110.84,7.49,172,6,39.37-.959,66.44-10.629,105.82-10.96,17.51-.147,51.33.552,80.18-22.04,12.99-10.175,6.89-29.456,14-45C787.753-149.131,84.975-276.16-25-54-49-5.524-43.081,56.193-12,129A25.076,25.076,0,0,0-5,131Z"/>
</svg>
