<svg xmlns="http://www.w3.org/2000/svg" width="1280" height="960" viewBox="0 0 1280 960">
  <defs>
    <style>
      .cls-1 {
        fill: #6cffd5;
        stroke: #aaffeb;
        stroke-width: 15px;
        fill-rule: evenodd;
      }
    </style>
  </defs>
  <path id="Фигура_1" data-name="Фигура 1" class="cls-1" d="M272,59c141.854,8.478,252.205-13.588,394-23,147.358-9.781,250.506,19.444,398,12,286.32-14.451,477.66-84.659,540,5,37.55,54,7.02,134.433-5,167-63.31,171.511-184.91,571.279-135,604,56.05,36.745,439.33-316.684,360-526-56.18-148.236-329.49-175.445-328-181,0.77-2.877,77.39,17.545,153,18,26.89,0.162,66.69-3.461,104-8,44.32-5.393,84.72-13.279,129-19,44.25-5.717,93.25-10.683,124-11,61.18-.63,110.84,7.49,172,6,40.03-.975,65.81-12.559,105.82-10.96,44.59,1.782,76.93,10.992,102.18-9.04,25.81-20.479,32.06-61.877,26-114-79.25,9.6-157.1,16.826-237,22-79.46,5.145-177.56,7.927-271,9-96.33,1.107-192.71-1.149-281-5C1104.01-27.637-566.249-449.02-613-328-634.18-273.173-354.026-92.763-74-5A1446.962,1446.962,0,0,0,272,59Z"/>
</svg>
