<svg width="132" height="166" viewBox="0 0 132 166" fill="none" xmlns="http://www.w3.org/2000/svg">
<path d="M50.1173 134.677C74.8663 134.677 94.9294 115.562 94.9294 91.9817C94.9294 68.4018 74.8663 49.2866 50.1173 49.2866C25.3682 49.2866 5.30518 68.4018 5.30518 91.9817C5.30518 115.562 25.3682 134.677 50.1173 134.677Z" stroke="#3175D6" stroke-width="1.2" stroke-linecap="round" stroke-linejoin="round" stroke-dasharray="6.38 6.38"/>
<path d="M99.4669 46.4837C112.725 46.4837 123.473 36.2436 123.473 23.6117C123.473 10.9798 112.725 0.739624 99.4669 0.739624C86.2086 0.739624 75.4607 10.9798 75.4607 23.6117C75.4607 36.2436 86.2086 46.4837 99.4669 46.4837Z" fill="#6CFFD5"/>
<path d="M99.4488 82.2741C98.884 82.2739 98.3331 82.1078 97.871 81.7984C97.4175 81.4718 97.0897 81.012 96.9382 80.4899C96.7867 79.9679 96.8201 79.4129 97.033 78.9108L99.2349 73.4836L101.731 78.7494C101.906 79.1038 101.99 79.4928 101.977 79.8843C101.963 80.2758 101.852 80.6586 101.653 81.0012C101.453 81.3438 101.171 81.6364 100.83 81.8547C100.489 82.0731 100.098 82.211 99.6895 82.2571L99.4488 82.2741Z" fill="#BDE0FC"/>
<g style="mix-blend-mode:multiply" opacity="0.45">
<path d="M101.731 78.7664L99.235 73.5006L98.6555 74.9275L100.438 78.7664C100.588 79.0945 100.663 79.4491 100.66 79.8068C100.656 80.1646 100.573 80.5177 100.417 80.843C100.26 81.1683 100.034 81.4585 99.7519 81.6948C99.47 81.9312 99.1389 82.1083 98.7803 82.2146C98.9877 82.2619 99.2 82.2875 99.4132 82.291H99.6539C100.068 82.2508 100.465 82.1163 100.813 81.899C101.161 81.6817 101.449 81.3878 101.652 81.0422C101.856 80.6967 101.97 80.3095 101.983 79.9134C101.997 79.5173 101.91 79.1239 101.731 78.7664Z" fill="#BDE0FC"/>
</g>
<g style="mix-blend-mode:screen" opacity="0.35">
<path d="M98.1832 80.6943C98.7642 80.6943 99.2351 80.2456 99.2351 79.6921C99.2351 79.1386 98.7642 78.6899 98.1832 78.6899C97.6023 78.6899 97.1313 79.1386 97.1313 79.6921C97.1313 80.2456 97.6023 80.6943 98.1832 80.6943Z" fill="#BDE0FC"/>
</g>
<path d="M104.058 73.5005C103.493 73.5004 102.942 73.3343 102.48 73.0249C102.026 72.7007 101.697 72.2423 101.546 71.7214C101.394 71.2005 101.428 70.6464 101.642 70.1458L103.844 64.7186L106.34 69.9844C106.515 70.3381 106.599 70.7265 106.586 71.1174C106.573 71.5083 106.463 71.8907 106.264 72.2332C106.066 72.5756 105.785 72.8683 105.445 73.0871C105.105 73.306 104.715 73.4447 104.307 73.4921L104.058 73.5005Z" fill="#BDE0FC"/>
<g style="mix-blend-mode:multiply" opacity="0.45">
<path d="M106.34 69.9844L103.844 64.7186L103.264 66.137L105.047 69.9759C105.198 70.2997 105.275 70.6506 105.272 71.0049C105.269 71.3593 105.187 71.709 105.031 72.0306C104.874 72.3523 104.648 72.6384 104.366 72.87C104.085 73.1015 103.755 73.273 103.398 73.3731C103.602 73.4205 103.812 73.4462 104.022 73.4496H104.343C104.74 73.3937 105.119 73.2509 105.449 73.0323C105.779 72.8137 106.051 72.5253 106.245 72.1896C106.438 71.854 106.547 71.4802 106.564 71.0976C106.58 70.715 106.504 70.334 106.34 69.9844Z" fill="#BDE0FC"/>
</g>
<g style="mix-blend-mode:screen" opacity="0.35">
<path d="M102.801 71.9039C103.382 71.9039 103.853 71.4552 103.853 70.9017C103.853 70.3482 103.382 69.8995 102.801 69.8995C102.22 69.8995 101.749 70.3482 101.749 70.9017C101.749 71.4552 102.22 71.9039 102.801 71.9039Z" fill="#BDE0FC"/>
</g>
<path d="M106.571 86.682C106.007 86.6819 105.456 86.5158 104.994 86.2064C104.54 85.8822 104.211 85.4238 104.06 84.9029C103.908 84.382 103.942 83.8279 104.156 83.3272L106.358 77.8916L108.862 83.1659C109.036 83.5204 109.118 83.909 109.104 84.2999C109.089 84.6907 108.978 85.0727 108.779 85.4148C108.58 85.7568 108.299 86.0491 107.958 86.2679C107.618 86.4867 107.228 86.6257 106.821 86.6735L106.571 86.682Z" fill="#BDE0FC"/>
<g style="mix-blend-mode:multiply" opacity="0.45">
<path d="M108.862 83.1659L106.357 77.8916L105.778 79.3269L107.561 83.1659C107.712 83.4897 107.789 83.8406 107.786 84.1949C107.783 84.5493 107.701 84.899 107.545 85.2206C107.388 85.5422 107.162 85.8284 106.88 86.0599C106.599 86.2914 106.269 86.463 105.912 86.5631C106.116 86.6105 106.325 86.6361 106.536 86.6395H106.785C107.191 86.5947 107.58 86.4594 107.921 86.2447C108.262 86.03 108.545 85.7419 108.747 85.4037C108.949 85.0655 109.065 84.6867 109.085 84.2979C109.105 83.9091 109.029 83.5213 108.862 83.1659Z" fill="#BDE0FC"/>
</g>
<g style="mix-blend-mode:screen" opacity="0.35">
<path d="M105.315 85.0852C105.896 85.0852 106.366 84.6365 106.366 84.083C106.366 83.5295 105.896 83.0808 105.315 83.0808C104.734 83.0808 104.263 83.5295 104.263 84.083C104.263 84.6365 104.734 85.0852 105.315 85.0852Z" fill="#BDE0FC"/>
</g>
<path d="M98.9943 66.7146C98.4325 66.7133 97.8847 66.5472 97.4254 66.239C96.9695 65.9143 96.6398 65.4544 96.4881 64.9317C96.3364 64.409 96.3714 63.853 96.5874 63.3513L98.7893 57.9242L101.285 63.1899C101.461 63.5443 101.545 63.9333 101.531 64.3248C101.518 64.7163 101.407 65.0992 101.207 65.4418C101.008 65.7844 100.726 66.0769 100.385 66.2953C100.043 66.5136 99.6522 66.6515 99.2439 66.6976L98.9943 66.7146Z" fill="#BDE0FC"/>
<g style="mix-blend-mode:multiply" opacity="0.45">
<path d="M101.312 63.1899L98.816 57.9242L98.2366 59.3425L100.019 63.1814C100.169 63.5096 100.245 63.8641 100.241 64.2219C100.237 64.5797 100.154 64.9328 99.998 65.2581C99.8415 65.5833 99.615 65.8736 99.333 66.1099C99.051 66.3463 98.72 66.5233 98.3614 66.6297C98.5659 66.6765 98.7751 66.7022 98.9854 66.7061H99.235C99.6476 66.6654 100.044 66.5309 100.391 66.3141C100.738 66.0973 101.025 65.8044 101.228 65.4599C101.432 65.1155 101.545 64.7296 101.56 64.3347C101.575 63.9397 101.49 63.5471 101.312 63.1899Z" fill="#BDE0FC"/>
</g>
<g style="mix-blend-mode:screen" opacity="0.35">
<path d="M97.764 65.1179C98.345 65.1179 98.8159 64.6692 98.8159 64.1157C98.8159 63.5622 98.345 63.1135 97.764 63.1135C97.1831 63.1135 96.7122 63.5622 96.7122 64.1157C96.7122 64.6692 97.1831 65.1179 97.764 65.1179Z" fill="#BDE0FC"/>
</g>
<path d="M113.257 93.9097C112.74 92.5677 107.017 91.5061 100.091 91.5061C93.1644 91.5061 87.4504 92.5677 86.9333 93.9097V130.252C87.4504 131.594 93.1733 132.647 100.091 132.647C107.008 132.647 112.74 131.594 113.257 130.252V93.9097Z" fill="#3175D6"/>
<g style="mix-blend-mode:screen" opacity="0.75">
<path d="M100.126 96.7039C107.418 96.7039 113.328 95.5403 113.328 94.105C113.328 92.6697 107.418 91.5061 100.126 91.5061C92.8351 91.5061 86.9243 92.6697 86.9243 94.105C86.9243 95.5403 92.8351 96.7039 100.126 96.7039Z" fill="#3175D6"/>
</g>
<g style="mix-blend-mode:multiply" opacity="0.35">
<path d="M100.126 132.647C107.418 132.647 113.328 131.483 113.328 130.048C113.328 128.613 107.418 127.449 100.126 127.449C92.8351 127.449 86.9243 128.613 86.9243 130.048C86.9243 131.483 92.8351 132.647 100.126 132.647Z" fill="#3175D6"/>
</g>
<g style="mix-blend-mode:multiply" opacity="0.25">
<path d="M100.126 96.3047C106.955 96.3047 112.49 95.3199 112.49 94.105C112.49 92.8901 106.955 91.9053 100.126 91.9053C93.2978 91.9053 87.7622 92.8901 87.7622 94.105C87.7622 95.3199 93.2978 96.3047 100.126 96.3047Z" fill="#3175D6"/>
</g>
<g style="mix-blend-mode:screen" opacity="0.35">
<path d="M102.854 96.2453C104.82 96.1831 106.78 95.9959 108.72 95.6847V92.5253C106.78 92.2141 104.82 92.0268 102.854 91.9647V96.2453Z" fill="#3175D6"/>
</g>
<g style="mix-blend-mode:screen" opacity="0.25">
<g style="mix-blend-mode:screen" opacity="0.25">
<path d="M92.7989 96.2623C91.9509 96.1583 91.1089 96.0137 90.2761 95.8291V131.781C91.0249 131.942 91.8629 132.086 92.7989 132.205V96.2623Z" fill="#3175D6"/>
</g>
</g>
<g style="mix-blend-mode:multiply" opacity="0.55">
<path d="M104.771 119.907C101.276 119.907 98.932 122.226 94.1806 120.332C89.777 118.574 87.3077 120.069 86.969 120.332V130.286C87.486 131.628 93.209 132.681 100.126 132.681C107.044 132.681 112.776 131.628 113.293 130.286V121.555C112.811 121.402 108.087 119.941 104.771 119.907Z" fill="#3175D6"/>
</g>
<g style="mix-blend-mode:screen" opacity="0.25">
<g style="mix-blend-mode:screen" opacity="0.25">
<path d="M86.969 94.3088V130.252C87.281 131.101 89.5274 131.781 92.7989 132.205V96.2623C89.5185 95.8631 87.281 95.1242 86.969 94.3088Z" fill="#3175D6"/>
</g>
</g>
<g style="mix-blend-mode:multiply" opacity="0.35">
<g style="mix-blend-mode:multiply" opacity="0.35">
<path d="M105.368 96.4916V132.435C109.763 132.061 112.909 131.229 113.293 130.252V94.3088C112.909 95.2856 109.763 96.1179 105.368 96.4916Z" fill="#3175D6"/>
</g>
</g>
<path d="M50.3757 121.716C50.3757 121.716 41.5773 113.384 50.3757 101.282C59.1741 89.179 51.1245 85.408 50.3757 79.3099C49.0742 68.3453 54.4228 65.2877 54.4228 65.2877" stroke="#6CFFD5" stroke-width="1.06" stroke-miterlimit="10"/>
<path d="M63.0252 88.2192C59.6735 91.2513 54.4675 91.2173 54.4675 91.2173C54.4675 91.2173 54.6993 86.2573 58.0332 83.2253C61.3672 80.1932 66.591 80.2272 66.591 80.2272C66.591 80.2272 66.3859 85.2127 63.0252 88.2192Z" fill="#6CFFD5"/>
<g style="mix-blend-mode:multiply">
<path d="M66.0115 83.3441C65.4564 84.6188 64.6379 85.7741 63.6047 86.7414C60.2529 89.7819 55.047 89.748 55.047 89.748C55.1277 88.6992 55.331 87.6623 55.6531 86.6564C54.9984 88.1224 54.598 89.6799 54.4675 91.2682C54.4675 91.2682 59.6735 91.2682 63.0252 88.2701C64.4506 86.9015 65.4794 85.2043 66.0115 83.3441Z" fill="#6CFFD5"/>
</g>
<g style="mix-blend-mode:screen" opacity="0.5">
<path d="M57.7301 85.0428C61.0908 82.0107 66.2968 82.0447 66.2968 82.0447C66.2968 82.0447 66.2968 82.1806 66.2968 82.4269C66.4786 81.716 66.595 80.9913 66.6444 80.2611C66.6444 80.2611 61.4385 80.2611 58.0867 83.2592C55.2876 85.8071 54.6636 89.6545 54.521 90.903C54.9736 88.6951 56.0883 86.6595 57.7301 85.0428Z" fill="#6CFFD5"/>
</g>
<path d="M59.7715 66.859C56.4197 69.8911 51.2048 69.8571 51.2048 69.8571C51.2048 69.8571 51.4366 64.8971 54.7705 61.865C58.1045 58.833 63.3372 58.867 63.3372 58.867C63.3372 58.867 63.1589 63.8185 59.7715 66.859Z" fill="#6CFFD5"/>
<g style="mix-blend-mode:multiply">
<path d="M62.7845 61.95C62.2326 63.2242 61.4171 64.3796 60.3865 65.3472C57.0259 68.3878 51.8199 68.3538 51.8199 68.3538C51.9026 67.3136 52.1059 66.2853 52.4261 65.2878C51.7714 66.7537 51.371 68.3113 51.2405 69.8995C51.2405 69.8995 56.4553 69.8995 59.8071 66.9015C61.2342 65.5254 62.2603 63.8189 62.7845 61.95Z" fill="#6CFFD5"/>
</g>
<g style="mix-blend-mode:screen" opacity="0.5">
<path d="M54.512 63.6486C57.8638 60.6165 63.0697 60.6505 63.0697 60.6505C63.0697 60.6505 63.0697 60.7864 63.0697 61.0327C63.2513 60.3214 63.3706 59.597 63.4263 58.8669C63.4263 58.8669 58.2203 58.8669 54.8597 61.865C52.0695 64.413 51.4455 68.2604 51.2939 69.5089C51.7525 67.3011 52.8698 65.2663 54.512 63.6486Z" fill="#6CFFD5"/>
</g>
<path d="M43.2622 81.2379C46.8279 84.0576 52.016 83.7009 52.016 83.7009C52.016 83.7009 51.4455 78.7749 47.8887 75.9467C44.3319 73.1184 39.1438 73.4836 39.1438 73.4836C39.1438 73.4836 39.7143 78.4182 43.2622 81.2379Z" fill="#6CFFD5"/>
<g style="mix-blend-mode:multiply">
<path d="M39.9551 76.5242C40.594 77.7581 41.4886 78.8559 42.5848 79.7516C46.1505 82.5713 51.3297 82.2146 51.3297 82.2146C51.1802 81.1752 50.9081 80.1552 50.5185 79.174C51.2722 80.5956 51.778 82.1245 52.0161 83.7009C52.0161 83.7009 46.8191 84.0576 43.2623 81.2379C41.7517 79.9646 40.6125 78.3408 39.9551 76.5242Z" fill="#6CFFD5"/>
</g>
<g style="mix-blend-mode:screen" opacity="0.5">
<path d="M48.3344 77.7132C44.7687 74.8935 39.5806 75.2502 39.5806 75.2502C39.5806 75.2502 39.5806 75.3861 39.643 75.6239C39.4159 74.9246 39.249 74.2088 39.1438 73.4837C39.1438 73.4837 44.3408 73.1269 47.8887 75.9467C50.8572 78.2993 51.7397 82.1212 51.9536 83.3272C51.3364 81.1643 50.0802 79.2158 48.3344 77.7132Z" fill="#6CFFD5"/>
</g>
<path d="M42.4689 98.5215C46.0346 101.341 51.2138 100.984 51.2138 100.984C51.2138 100.984 50.6433 96.05 47.0954 93.2302C43.5475 90.4105 38.3772 90.7672 38.3772 90.7672C38.3772 90.7672 38.9121 95.7018 42.4689 98.5215Z" fill="#6CFFD5"/>
<g style="mix-blend-mode:multiply">
<path d="M39.1616 93.8077C39.7965 95.0417 40.6881 96.1398 41.7824 97.0351C45.3481 99.8549 50.5273 99.4981 50.5273 99.4981C50.3778 98.4588 50.1057 97.4388 49.7161 96.4576C50.4671 97.8712 50.9728 99.3913 51.2137 100.959C51.2137 100.959 46.0167 101.316 42.4688 98.496C40.9584 97.2329 39.8187 95.6173 39.1616 93.8077Z" fill="#6CFFD5"/>
</g>
<g style="mix-blend-mode:screen" opacity="0.5">
<path d="M47.5322 95.0138C43.9665 92.1941 38.7783 92.5508 38.7783 92.5508C38.7783 92.5508 38.7783 92.6867 38.8407 92.9245C38.6248 92.2186 38.4697 91.4972 38.3772 90.7672C38.3772 90.7672 43.5742 90.4105 47.131 93.2302C50.0906 95.5828 50.9731 99.4048 51.187 100.611C50.5624 98.4477 49.2928 96.5035 47.5322 95.0138Z" fill="#6CFFD5"/>
</g>
<path d="M55.0023 111.083C51.6505 114.115 46.4446 114.081 46.4446 114.081C46.4446 114.081 46.6674 109.121 50.0103 106.089C53.3532 103.057 58.568 103.091 58.568 103.091C58.568 103.091 58.3541 108.042 55.0023 111.083Z" fill="#6CFFD5"/>
<g style="mix-blend-mode:multiply">
<path d="M57.9887 106.174C57.4401 107.45 56.6242 108.606 55.5908 109.571C52.239 112.612 47.033 112.578 47.033 112.578C47.113 111.529 47.3133 110.493 47.6303 109.486C46.9758 110.952 46.5782 112.51 46.4536 114.098C46.4536 114.098 51.6596 114.098 55.0113 111.1C56.4344 109.731 57.4603 108.033 57.9887 106.174Z" fill="#6CFFD5"/>
</g>
<g style="mix-blend-mode:screen" opacity="0.5">
<path d="M49.7072 107.872C53.059 104.84 58.2738 104.874 58.2738 104.874C58.2738 104.874 58.2738 105.01 58.2738 105.256C58.4503 104.545 58.5665 103.82 58.6215 103.091C58.6215 103.091 53.4155 103.091 50.0638 106.089C47.2647 108.637 46.6407 112.484 46.498 113.733C46.9579 111.527 48.0716 109.493 49.7072 107.872Z" fill="#6CFFD5"/>
</g>
<path d="M9.04025 51.1891C9.04168 45.7117 11.0497 40.4067 14.7179 36.1892C18.3861 31.9717 23.4844 29.1064 29.1331 28.0877C27.6191 27.8181 26.0824 27.6816 24.5422 27.6801C18.0804 27.7971 11.9248 30.3249 7.39846 34.7202C2.87212 39.1154 0.336426 45.0272 0.336426 51.1848C0.336426 57.3424 2.87212 63.2543 7.39846 67.6495C11.9248 72.0448 18.0804 74.5726 24.5422 74.6896C26.0826 74.6923 27.6197 74.5558 29.1331 74.282C23.4851 73.265 18.3871 70.4014 14.7187 66.1854C11.0504 61.9693 9.04203 56.6654 9.04025 51.1891Z" fill="#3175D6"/>
<g style="mix-blend-mode:multiply" opacity="0.45">
<path d="M9.04019 51.1891C9.04162 45.7117 11.0497 40.4067 14.7179 36.1892C18.3861 31.9717 23.4844 29.1064 29.133 28.0877C27.6191 27.8181 26.0823 27.6816 24.5421 27.6801C24.1767 27.6801 23.8112 27.6801 23.4546 27.6801C24.6214 27.7298 25.7831 27.8575 26.9312 28.0622C21.2856 29.0826 16.1909 31.9483 12.5258 36.1649C8.86074 40.3815 6.85522 45.6846 6.85522 51.1594C6.85522 56.6341 8.86074 61.9373 12.5258 66.1539C16.1909 70.3705 21.2856 73.2361 26.9312 74.2565C25.7831 74.4612 24.6214 74.5889 23.4546 74.6387C23.8112 74.6387 24.1767 74.6387 24.5421 74.6387C26.0825 74.6414 27.6197 74.5049 29.133 74.231C23.4941 73.2157 18.403 70.3596 14.7357 66.1541C11.0684 61.9485 9.05442 56.6567 9.04019 51.1891Z" fill="#3175D6"/>
</g>
<g style="mix-blend-mode:screen" opacity="0.25">
<path d="M4.27121 51.1891C4.27211 45.3105 6.5846 39.6455 10.7528 35.3111C14.9209 30.9767 20.6422 28.2874 26.7887 27.7735C26.0666 27.714 25.3268 27.6801 24.5869 27.6801C18.1251 27.7971 11.9695 30.3249 7.44314 34.7202C2.9168 39.1154 0.381104 45.0272 0.381104 51.1848C0.381104 57.3424 2.9168 63.2543 7.44314 67.6495C11.9695 72.0448 18.1251 74.5726 24.5869 74.6896C25.3268 74.6896 26.0666 74.6896 26.7887 74.5962C20.6438 74.0824 14.9237 71.3943 10.7558 67.0617C6.58783 62.7291 4.27433 57.0662 4.27121 51.1891Z" fill="#3175D6"/>
</g>
<path opacity="0.65" d="M80.5951 9.4707C77.5935 13.0999 75.8165 17.5104 75.4983 22.121C75.18 26.7316 76.3354 31.3259 78.8123 35.2984C81.6812 34.5307 84.2296 32.9343 86.1065 30.7291C87.9834 28.5239 89.0962 25.8184 89.2918 22.9853C89.4874 20.1523 88.756 17.3312 87.1984 14.9108C85.6409 12.4904 83.3338 10.5897 80.5951 9.4707Z" fill="#76E5C0"/>
<g style="mix-blend-mode:screen" opacity="0.65">
<path d="M99.4667 7.60225C105.214 7.6022 110.771 9.56676 115.127 13.1389C119.483 16.711 122.35 21.6537 123.205 27.0685C123.729 23.8091 123.507 20.4805 122.554 17.3104C121.602 14.1404 119.942 11.204 117.687 8.70231C115.433 6.2006 112.637 4.1927 109.492 2.81616C106.348 1.43961 102.928 0.726929 99.4667 0.726929C96.0059 0.726929 92.5859 1.43961 89.4411 2.81616C86.2963 4.1927 83.5009 6.2006 81.2464 8.70231C78.9919 11.204 77.3315 14.1404 76.379 17.3104C75.4266 20.4805 75.2045 23.8091 75.728 27.0685C76.5838 21.6537 79.4503 16.711 83.8064 13.1389C88.1626 9.56676 93.7193 7.6022 99.4667 7.60225Z" fill="#6CFFD5"/>
</g>
<path d="M70.0941 35.0946C78.0746 35.0946 84.5442 28.9307 84.5442 21.3272C84.5442 13.7237 78.0746 7.55981 70.0941 7.55981C62.1136 7.55981 55.644 13.7237 55.644 21.3272C55.644 28.9307 62.1136 35.0946 70.0941 35.0946Z" fill="#14407D"/>
<g style="mix-blend-mode:multiply" opacity="0.25">
<path d="M70.0943 7.53433C68.8918 7.53442 67.694 7.67707 66.5286 7.95899C69.6323 8.72247 72.3818 10.447 74.3448 12.8614C76.3078 15.2759 77.373 18.2434 77.373 21.2975C77.373 24.3516 76.3078 27.3191 74.3448 29.7335C72.3818 32.148 69.6323 33.8725 66.5286 34.636C68.5159 35.1225 70.5892 35.2002 72.6105 34.8638C74.6318 34.5275 76.5548 33.7849 78.2514 32.6854C79.948 31.5859 81.3795 30.1548 82.4504 28.4872C83.5213 26.8196 84.2072 24.9539 84.4624 23.0141C84.7176 21.0743 84.5363 19.105 83.9305 17.2371C83.3247 15.3693 82.3084 13.6458 80.9491 12.1814C79.5898 10.7169 77.9187 9.54506 76.0471 8.7438C74.1755 7.94254 72.1462 7.53023 70.0943 7.53433Z" fill="#14407D"/>
</g>
<g style="mix-blend-mode:screen" opacity="0.55">
<path d="M59.1117 21.5735C59.1128 18.0258 60.5513 14.6154 63.1272 12.0536C65.7032 9.4918 69.2176 7.97627 72.9378 7.82307C72.0017 7.64035 71.0495 7.54365 70.0941 7.5343C66.2617 7.5343 62.5863 8.98479 59.8764 11.5667C57.1665 14.1486 55.644 17.6504 55.644 21.3017C55.644 24.953 57.1665 28.4548 59.8764 31.0367C62.5863 33.6186 66.2617 35.0691 70.0941 35.0691H70.7092C67.4385 34.44 64.4969 32.7525 62.3832 30.2927C60.2694 27.833 59.1136 24.7525 59.1117 21.5735Z" fill="#14407D"/>
</g>
<path d="M70.0942 11.8489V21.3187L81.3173 24.9368" stroke="white" stroke-width="1.06" stroke-miterlimit="10"/>
<path opacity="0.25" d="M67.1258 165.982C102.711 165.982 131.558 163.963 131.558 161.473C131.558 158.982 102.711 156.963 67.1258 156.963C31.5408 156.963 2.69336 158.982 2.69336 161.473C2.69336 163.963 31.5408 165.982 67.1258 165.982Z" fill="#E1D9FF"/>
<path opacity="0.25" d="M66.0113 161.26C90.1351 161.26 109.691 160.31 109.691 159.137C109.691 157.964 90.1351 157.014 66.0113 157.014C41.8875 157.014 22.3313 157.964 22.3313 159.137C22.3313 160.31 41.8875 161.26 66.0113 161.26Z" fill="#C1BECD"/>
</svg>
